<svg width="16" height="21" viewBox="0 0 16 21" fill="none" xmlns="http://www.w3.org/2000/svg">
<path d="M15.4182 1.56548L12.1682 0.656823C11.8151 0.558386 11.4526 0.781763 11.3088 1.18309L9.80884 5.42347C9.67759 5.7945 9.76509 6.2299 10.0245 6.48357L11.9182 8.36145C10.7932 11.2654 8.82759 13.6809 6.38072 15.0703L4.83072 12.776C4.61822 12.4618 4.26197 12.3557 3.95572 12.5148L0.455721 14.3321C0.121346 14.51 -0.063029 14.9492 0.018221 15.377L0.768221 19.3145C0.846346 19.7234 1.14635 20.0187 1.49947 20.0187C9.50259 20.0187 15.9995 12.1627 15.9995 2.45141C15.9995 2.02738 15.7588 1.66013 15.4182 1.56548Z" fill="currentColor"/>
</svg>
